<svg width="18" height="22" viewBox="0 0 18 22" fill="none" xmlns="http://www.w3.org/2000/svg">
<path d="M1.32194 2.75652C1.34288 2.75262 1.36357 2.74745 1.3839 2.74102L8.19527 0.588276C8.56769 0.470575 8.9665 0.470575 9.33892 0.588276L16.1502 2.74102C16.1706 2.74745 16.1913 2.75262 16.2122 2.75652C16.2131 2.75668 16.2139 2.75683 16.2147 2.75699L16.2144 2.75692L16.2137 2.7568L16.2127 2.75662L16.2153 2.75715C16.2196 2.75804 16.2279 2.75983 16.2395 2.76264C16.263 2.76828 16.2993 2.77785 16.3442 2.79227C16.4359 2.82172 16.5529 2.8682 16.6653 2.93601C16.8894 3.07132 17.0342 3.24617 17.0342 3.51726V11.2628C17.0342 12.1676 16.7015 13.1365 16.1283 14.1256C15.5569 15.1115 14.7658 16.0842 13.8974 16.9861C12.1599 18.7907 10.163 20.2613 9.15293 20.9326L9.15106 20.9339C8.91772 21.0904 8.6164 21.0904 8.38312 20.9339L8.3812 20.9326C7.37116 20.2613 5.37418 18.7907 3.63676 16.9861C2.76838 16.0842 1.97722 15.1115 1.40586 14.1256C0.832622 13.1365 0.5 12.1676 0.5 11.2628V3.51726C0.5 3.24617 0.644738 3.07132 0.868874 2.93601C0.981218 2.8682 1.09825 2.82172 1.18992 2.79227C1.2348 2.77785 1.27118 2.76828 1.29461 2.76264C1.30627 2.75983 1.31453 2.75804 1.31883 2.75715L1.32194 2.75652ZM1.31974 2.75692L1.3197 2.75693C1.31973 2.75692 1.31976 2.75692 1.31979 2.75692L1.31974 2.75692Z" stroke="#6F7882" stroke-linecap="round" stroke-linejoin="round"/>
</svg>
